<svg version="1.1" id="Layer_1" xmlns="http://www.w3.org/2000/svg" xmlns:xlink="http://www.w3.org/1999/xlink" x="0px" y="0px"
	 width="100%" viewBox="0 0 500 500" enable-background="new 0 0 500 500" xml:space="preserve">
<path fill="#E5F7F8" opacity="1.000000" stroke="none" 
	d="
M316.000000,501.000000 
	C210.666687,501.000000 105.833382,501.000000 1.000056,501.000000 
	C1.000037,334.333405 1.000037,167.666794 1.000019,1.000146 
	C167.666565,1.000097 334.333130,1.000097 500.999756,1.000049 
	C500.999847,167.666519 500.999847,334.333038 500.999939,500.999786 
	C439.500000,501.000000 378.000000,501.000000 316.000000,501.000000 
M188.844711,191.731110 
	C187.050659,197.148468 189.044525,201.375717 193.111679,205.697891 
	C195.976379,209.884781 205.651108,212.498062 209.738281,210.025696 
	C210.748657,209.414520 211.333313,208.099609 212.785202,206.739532 
	C218.214844,204.090836 223.512482,205.738083 229.002930,208.047821 
	C228.964127,217.807465 229.865509,227.688034 228.629852,237.293716 
	C227.317108,247.498871 223.868958,257.419556 221.661072,267.531647 
	C221.385208,268.795135 222.832352,271.625488 223.748550,271.749176 
	C227.402863,272.242584 231.162949,271.952576 236.437134,271.952576 
	C234.582626,269.104248 233.896866,267.132874 232.510895,266.115540 
	C229.722977,264.069183 229.466263,261.567505 230.211624,258.657196 
	C233.984283,243.926956 235.230652,228.938065 234.921677,213.780396 
	C234.892609,212.354385 235.052414,210.924530 235.142120,209.148468 
	C242.476318,212.467438 249.409897,215.517044 256.232635,218.797165 
	C257.149139,219.237778 257.506744,220.840958 258.025879,222.498611 
	C258.173920,222.869675 258.321960,223.240738 258.279510,224.592712 
	C258.268372,229.423538 258.421051,234.261490 258.211700,239.083710 
	C257.790558,248.786331 258.727112,258.716400 253.409286,267.678375 
	C252.959229,268.436829 254.630539,271.709106 255.476471,271.775574 
	C260.533722,272.172974 265.637939,271.972412 271.240356,271.972412 
	C270.354614,265.456879 265.313599,265.140045 262.159149,263.649902 
	C262.743683,251.115097 263.314819,238.868561 264.584442,226.874374 
	C273.734131,231.841858 282.883789,236.809357 292.821472,241.993347 
	C295.793488,242.648392 297.708099,241.514908 299.413605,238.949249 
	C303.813690,232.329926 308.580658,225.955765 313.071472,219.394943 
	C315.851929,215.332840 318.395447,211.108521 320.965637,206.976776 
	C320.965637,206.976776 320.975342,207.058273 321.625549,206.659988 
	C322.665527,202.194305 323.831787,197.752075 324.667603,193.248505 
	C324.914581,191.917679 324.228943,190.413788 323.204376,188.973328 
	C318.676147,187.613647 314.287018,188.385895 311.970673,192.424408 
	C309.168823,197.309357 306.514893,197.159348 302.823608,193.934494 
	C301.591309,192.857910 300.240509,191.916977 299.224640,190.266815 
	C299.206848,188.227646 299.189087,186.188477 299.858398,183.976471 
	C302.304688,181.048508 305.005798,178.291687 307.121399,175.141632 
	C309.018372,172.317108 306.436096,159.831619 303.857147,157.649841 
	C303.384583,157.250061 302.659302,157.149048 301.990051,156.159317 
	C301.142181,151.513321 299.311859,147.484207 294.600037,144.507370 
	C293.783722,144.284897 292.967407,144.062424 291.750549,143.290344 
	C288.816132,138.106537 285.251801,133.820541 278.612122,133.590271 
	C277.939362,133.566940 277.365479,132.482010 276.628204,132.218689 
	C273.440460,131.080200 270.208984,130.064072 266.221466,128.909454 
	C258.522827,127.965508 250.824203,127.021561 242.882660,125.546120 
	C242.852737,125.353638 242.822830,125.161163 243.348465,124.539284 
	C248.952850,121.233948 254.557251,117.928604 260.922363,114.174606 
	C259.357361,113.650597 258.919586,113.358223 258.502930,113.385765 
	C247.540405,114.110527 236.575714,114.811516 225.621841,115.652863 
	C222.014053,115.929970 217.913391,115.621742 214.934845,117.235901 
	C202.962936,123.723839 191.342331,130.860062 178.992447,138.059143 
	C178.652359,142.423813 180.206772,147.082718 176.474197,150.921066 
	C175.673798,151.744156 175.593475,153.998779 176.113022,155.186417 
	C176.742081,156.624344 178.370422,158.573532 179.549103,158.561844 
	C180.782532,158.549622 182.995789,156.479340 183.003342,155.297287 
	C183.017838,153.030930 181.811005,150.744263 181.045044,148.488358 
	C179.915024,145.160141 178.285263,141.808319 182.901520,139.097977 
	C187.271240,138.754272 191.640976,138.410553 196.514130,138.146362 
	C196.678055,138.101715 196.841965,138.057083 197.601562,138.213562 
	C198.020477,138.209427 198.439392,138.205307 199.214996,138.821320 
	C199.865570,140.875793 200.516159,142.930267 200.554443,145.319595 
	C199.010666,148.210098 197.466888,151.100601 195.344788,154.320053 
	C190.822021,157.710297 188.177307,161.887375 188.821869,167.888123 
	C188.990295,169.456223 187.907333,171.285965 187.067215,172.812958 
	C183.608078,179.100174 184.106537,183.317154 189.150742,189.628555 
	C189.173676,190.101639 189.196609,190.574738 188.844711,191.731110 
M140.777512,357.886414 
	C141.720535,356.785217 142.663544,355.684021 143.906967,354.232025 
	C146.801224,359.483704 150.860245,363.942047 151.432159,368.810059 
	C151.886368,372.675995 148.073578,377.043304 145.469482,382.669800 
	C149.180954,381.505493 152.883453,381.485474 153.848663,379.850006 
	C158.890869,371.306122 163.238037,362.352081 167.769775,353.650452 
	C159.367569,350.076904 158.969421,357.798279 155.900925,362.298950 
	C154.627548,359.996399 153.789276,358.213531 152.701675,356.598633 
	C151.834625,355.311218 150.740067,353.306824 149.614227,353.213287 
	C144.542358,352.792023 139.361343,352.463226 134.352234,353.116882 
	C132.384979,353.373596 129.730286,356.068726 129.311325,358.058289 
	C128.972961,359.665070 131.308136,362.077423 132.865738,363.752655 
	C133.846649,364.807678 135.580414,365.162689 136.976440,365.831726 
	C136.824982,366.400085 136.673538,366.968445 136.522079,367.536804 
	C134.391830,367.148682 132.261597,366.760590 129.859802,366.322998 
	C129.254486,367.332062 128.518433,368.559082 127.797760,369.760437 
	C132.569443,373.167511 139.706085,373.652252 142.143784,370.291748 
	C147.930008,362.315033 139.073364,361.386444 135.121902,358.133728 
	C135.356201,357.803986 135.590485,357.474243 135.824783,357.144501 
	C137.186081,357.337524 138.547394,357.530518 140.777512,357.886414 
M372.013519,311.457397 
	C372.013519,304.186707 372.013519,296.915985 372.013519,289.464600 
	C369.538361,289.464600 367.653473,289.464600 365.235657,289.464600 
	C365.235657,291.907654 365.235657,294.030487 365.235657,296.153320 
	C365.235657,298.263336 365.235657,300.373322 365.235657,302.767853 
	C363.567413,302.347107 362.468842,302.023682 361.350739,301.795837 
	C355.818268,300.668365 350.864838,304.048187 350.023346,309.500885 
	C349.059479,315.746124 352.617645,321.303558 358.284485,321.493713 
	C362.723480,321.642639 367.194183,320.848053 372.013550,320.442108 
	C372.013550,317.713104 372.013550,315.077301 372.013519,311.457397 
M247.013565,303.504181 
	C247.013565,298.892029 247.013565,294.279877 247.013565,289.451233 
	C244.561890,289.451233 242.676651,289.451233 240.270416,289.451233 
	C240.270416,293.992096 240.270416,298.239563 240.270416,302.761658 
	C238.441940,302.309570 237.185089,301.924988 235.900620,301.694061 
	C230.465546,300.716797 225.604904,304.414886 224.981354,309.958740 
	C224.272934,316.256989 228.097183,321.607239 233.733292,321.583282 
	C238.029343,321.565063 242.322388,320.843597 247.013580,320.397217 
	C247.013580,315.092773 247.013580,309.797424 247.013565,303.504181 
M112.103691,365.579102 
	C112.103691,364.113678 112.103691,362.648254 112.103691,361.247864 
	C115.135735,360.806458 117.832993,360.736847 120.322113,359.981445 
	C124.923973,358.584869 126.855400,355.008759 126.682022,350.392548 
	C126.520508,346.092041 124.244774,342.746460 120.007446,342.196930 
	C115.185303,341.571564 110.219688,342.052399 105.397797,342.052399 
	C105.397797,352.160339 105.397797,361.927734 105.397797,371.735809 
	C107.731461,371.735809 109.795975,371.735809 112.103683,371.735809 
	C112.103683,369.812744 112.103683,368.170288 112.103691,365.579102 
M343.417053,371.849030 
	C344.888916,372.058807 346.373383,372.510773 347.830322,372.434753 
	C353.024689,372.163818 356.754608,367.715363 356.580048,362.214783 
	C356.409790,356.848724 352.687317,352.649841 347.682709,352.679718 
	C343.386871,352.705353 339.093994,353.223877 334.712036,353.530579 
	C334.712036,362.776978 334.712036,372.010437 334.712036,381.368347 
	C336.919647,381.368347 338.817657,381.368347 341.027100,381.368347 
	C341.027100,378.273376 340.954102,375.464111 341.102509,372.666595 
	C341.125885,372.225677 342.150940,371.837891 343.417053,371.849030 
M212.840790,312.428772 
	C213.334366,304.905548 220.081055,311.543060 222.552109,307.657654 
	C222.552109,306.609192 222.552109,305.020966 222.552109,303.143707 
	C219.256714,302.906372 216.208923,302.686829 212.821518,302.442871 
	C212.941071,300.409821 213.033554,298.837128 213.137970,297.061707 
	C216.611923,296.892761 219.686050,296.743286 222.731857,296.595184 
	C222.731857,294.342957 222.731857,292.598511 222.731857,290.775391 
	C216.996262,290.775391 211.604630,290.775391 206.075226,290.775391 
	C206.075226,300.922394 206.075226,310.675079 206.075226,320.721130 
	C211.734314,320.721130 217.131973,320.721130 222.740753,320.721130 
	C222.740753,318.792358 222.740753,317.082153 222.740753,315.901703 
	C219.174805,314.971802 216.036377,314.153381 212.840790,312.428772 
M199.763626,360.210327 
	C199.763626,364.130707 199.763626,368.051056 199.763626,371.880615 
	C202.450867,371.880615 204.263596,371.880615 206.537994,371.880615 
	C206.537994,367.772552 206.719284,363.799500 206.492722,359.849854 
	C206.200546,354.756714 202.322159,351.884033 197.181030,352.753174 
	C195.798111,352.986938 194.473465,353.565277 192.582062,354.153351 
	C192.582062,349.263275 192.582062,344.835907 192.582062,340.540649 
	C190.219116,340.540649 188.313843,340.540649 186.362549,340.540649 
	C186.362549,351.164246 186.362549,361.425995 186.362549,371.822815 
	C188.538757,371.822815 190.464325,371.822815 192.854309,371.822815 
	C192.854309,368.501434 192.724976,365.368011 192.885040,362.249451 
	C193.116959,357.731323 195.307739,356.824738 199.763626,360.210327 
M171.559540,309.108459 
	C170.247543,302.058350 166.482407,300.272522 157.775131,302.944763 
	C157.775131,298.409637 157.775131,294.004089 157.775131,289.441681 
	C155.390259,289.441681 153.485977,289.441681 151.445999,289.441681 
	C151.445999,300.088715 151.445999,310.471802 151.445999,320.724670 
	C153.705002,320.724670 155.626877,320.724670 157.855972,320.724670 
	C157.855972,317.283020 157.433151,314.058105 158.028870,311.033783 
	C158.341156,309.448456 160.439575,308.214935 161.731369,306.822540 
	C162.808701,308.236115 164.586044,309.544464 164.817642,311.085175 
	C165.299683,314.291901 164.963364,317.621674 164.963364,320.719666 
	C167.450165,320.719666 169.359573,320.719666 171.575027,320.719666 
	C171.575027,316.931641 171.575027,313.453094 171.559540,309.108459 
M247.465683,370.955078 
	C249.514633,371.411713 251.563599,371.868378 254.029251,372.417877 
	C254.029251,368.562592 253.579361,365.499786 254.192444,362.667053 
	C254.580566,360.873749 256.553192,359.423401 257.815155,357.819244 
	C258.920746,359.342987 260.699921,360.751282 260.985046,362.415588 
	C261.502838,365.437805 261.131927,368.612274 261.131927,371.817322 
	C263.588654,371.817322 265.510864,371.817322 267.828918,371.817322 
	C267.828918,367.497650 268.005951,363.370514 267.775452,359.266266 
	C267.574463,355.687256 265.393921,353.302032 261.846497,352.958160 
	C259.367859,352.717896 256.803528,353.361359 253.914261,353.645874 
	C253.914261,349.399963 253.914261,344.978882 253.914261,340.452698 
	C251.649048,340.452698 249.759140,340.452698 247.403030,340.452698 
	C247.403030,350.490601 247.403030,360.264343 247.465683,370.955078 
M330.264648,353.286560 
	C326.131500,353.062073 322.000031,352.698456 317.864746,352.648010 
	C312.570618,352.583344 308.767853,356.724915 308.680023,362.357544 
	C308.591858,368.011932 312.253845,372.449554 317.476288,372.431000 
	C321.819427,372.415588 326.160492,371.811218 330.735565,371.449280 
	C330.735565,365.648560 330.735565,359.852448 330.264648,353.286560 
M132.685562,296.767090 
	C133.514084,297.958832 135.017181,299.127319 135.059219,300.346191 
	C135.292664,307.113281 135.171143,313.892609 135.171143,320.813293 
	C137.741058,320.813293 139.834915,320.813293 142.205688,320.813293 
	C142.205688,312.842468 142.205688,305.072662 142.205688,297.110260 
	C144.680191,296.869263 146.905807,296.652527 149.423828,296.407288 
	C149.324936,294.327393 149.242493,292.593445 149.157379,290.803406 
	C141.924561,290.803406 135.149658,290.803406 128.165878,290.803406 
	C128.301575,293.605225 126.309029,297.355225 132.685562,296.767090 
M311.960968,320.053192 
	C311.960968,314.128113 311.960968,308.203033 311.960968,302.576202 
	C307.506775,302.164490 303.654480,301.692657 299.787964,301.479401 
	C294.586914,301.192474 290.134033,305.820801 290.054291,311.393372 
	C289.973633,317.027710 294.215485,321.797333 299.435944,321.648712 
	C303.429626,321.534973 307.413269,321.069946 311.960968,320.053192 
M173.870499,314.523682 
	C175.521255,319.147705 178.985840,321.427063 183.711655,321.481750 
	C187.533478,321.525970 191.208755,320.729645 193.769714,315.307526 
	C190.837250,315.517853 188.784882,315.485260 186.805679,315.849884 
	C183.963181,316.373535 181.504105,316.523834 180.062653,312.448242 
	C182.989212,312.448242 185.124283,312.448273 187.259354,312.448273 
	C189.371002,312.448273 191.482651,312.448242 193.587723,312.448242 
	C193.603195,305.096954 189.931793,301.465271 183.384064,301.583191 
	C177.196091,301.694580 171.832108,307.922485 173.870499,314.523682 
M209.942307,367.484070 
	C210.967545,368.550537 211.841080,369.844452 213.042969,370.646088 
	C220.078735,375.338776 230.317520,371.395355 231.103622,363.774292 
	C231.565323,359.298187 229.779297,355.933685 225.800201,353.990845 
	C221.316727,351.801849 216.744156,351.908661 212.618378,354.889343 
	C208.379791,357.951477 207.815079,362.149933 209.942307,367.484070 
M279.413849,367.085114 
	C278.420990,366.278259 277.428101,365.471405 276.435242,364.664551 
	C276.608704,364.290192 276.782196,363.915802 276.955688,363.541443 
	C281.203552,363.541443 285.451385,363.541443 289.662964,363.541443 
	C290.014954,357.321259 287.649384,353.884613 282.679413,352.883148 
	C277.060608,351.750977 271.745026,354.498627 270.129303,359.370392 
	C268.554962,364.117371 270.813080,369.297363 275.414764,371.494812 
	C280.304199,373.829742 286.147186,372.210571 290.198792,366.226776 
	C286.123932,366.621948 283.180603,366.907379 279.413849,367.085114 
M341.547241,312.668274 
	C343.948303,312.668274 346.349396,312.668274 348.748627,312.668274 
	C348.429718,305.314728 345.415039,301.899231 339.633240,301.457428 
	C334.469727,301.062866 329.734314,304.530579 328.509155,309.603516 
	C327.372986,314.308044 330.246979,319.162506 335.245056,320.981079 
	C340.421722,322.864655 345.329834,321.116852 347.688507,316.636414 
	C345.175415,311.015747 338.396240,320.182343 335.739044,312.941223 
	C337.688904,312.832184 339.159119,312.749939 341.547241,312.668274 
M270.957703,308.508484 
	C270.957703,306.430237 270.957703,304.351990 270.957703,301.979065 
	C268.214722,302.100555 266.320526,302.184448 264.094971,302.283020 
	C264.094971,305.850616 264.448944,308.888947 263.951904,311.781006 
	C263.686920,313.322571 261.950836,314.611267 260.878723,316.014069 
	C259.584717,314.635193 257.483124,313.417023 257.169922,311.842987 
	C256.572968,308.843048 256.996735,305.640015 256.996735,302.305969 
	C254.497101,302.305969 252.602493,302.305969 250.157181,302.305969 
	C250.157181,305.533325 250.115875,308.491516 250.165329,311.448181 
	C250.286728,318.705750 253.411057,321.758820 260.618927,321.727692 
	C268.518402,321.693573 270.906830,318.855560 270.957703,308.508484 
M369.858856,360.608093 
	C372.302185,362.559357 374.745544,364.510620 377.188873,366.461884 
	C377.061981,366.826294 376.935089,367.190735 376.808228,367.555176 
	C374.779236,367.154694 372.750275,366.754181 370.314636,366.273407 
	C369.733826,367.372253 369.021942,368.719055 368.320312,370.046448 
	C374.095306,373.428192 381.179138,373.365723 383.191925,369.648010 
	C387.290344,362.078064 379.982971,360.939789 375.272827,358.431946 
	C375.567383,358.020935 375.861908,357.609894 376.156464,357.198883 
	C378.126465,357.376709 380.096466,357.554504 382.106781,357.735962 
	C382.725861,356.527618 383.292389,355.421875 383.867523,354.299347 
	C375.420898,350.600464 369.939941,352.899628 369.858856,360.608093 
M394.218384,347.160095 
	C392.223083,346.689240 390.227814,346.218353 389.576355,346.064636 
	C387.713715,349.327240 386.247314,351.465271 385.266754,353.806824 
	C384.820282,354.872894 385.049408,357.355469 385.456604,357.469757 
	C389.429688,358.585236 387.726837,361.714783 387.806946,363.957123 
	C388.085266,371.749115 391.076263,373.895264 398.889008,371.241425 
	C398.485565,369.884735 398.375854,367.526550 397.620483,367.297485 
	C392.609650,365.777924 394.723755,361.872925 394.258240,358.614288 
	C395.669739,358.203766 396.977325,357.823425 399.548462,357.075623 
	C397.738800,354.903381 396.464569,353.373810 395.190308,351.844238 
	C394.882721,352.059662 394.575104,352.275055 394.267517,352.490479 
	C394.267517,351.006470 394.267517,349.522461 394.218384,347.160095 
M317.089630,315.901855 
	C319.316467,322.021332 322.332825,323.160400 327.974152,319.894684 
	C326.273376,316.131744 324.560516,312.341949 322.847626,308.552185 
	C323.734070,308.453247 324.620544,308.354340 325.506989,308.255402 
	C326.065216,306.338562 326.623413,304.421722 327.181610,302.504883 
	C321.975037,302.358398 324.802277,297.630096 323.157257,295.281799 
	C321.257172,295.281799 319.357239,295.281799 318.481384,295.281799 
	C316.869812,298.302185 315.508453,300.612946 314.411560,303.043121 
	C314.040131,303.866058 313.969727,305.641174 314.386230,305.876678 
	C318.360046,308.123596 316.596100,311.880951 317.089630,315.901855 
M234.642868,365.732422 
	C235.863770,372.324341 238.312332,373.641510 245.584381,371.286346 
	C245.189255,369.930969 245.111084,367.598846 244.336502,367.338501 
	C239.041901,365.558746 241.631149,361.598328 241.285690,359.449585 
	C242.980255,357.984192 245.034134,356.677795 244.868759,356.268890 
	C244.193390,354.598846 242.839737,353.203125 241.093307,350.834991 
	C241.064011,350.175812 240.977524,348.229919 240.892624,346.319580 
	C238.653442,346.319580 236.768204,346.319580 236.070251,346.319580 
	C234.519608,349.211273 233.186920,351.315277 232.260803,353.585144 
	C231.800629,354.713013 231.701050,357.133911 232.094589,357.287415 
	C236.156754,358.871979 234.066360,362.289368 234.642868,365.732422 
M183.699158,369.279053 
	C182.324081,368.537933 180.832260,367.950928 179.601898,367.018799 
	C177.854126,365.694702 176.298737,364.116730 174.661118,362.647217 
	C176.227509,361.096802 177.924332,358.139954 179.334793,358.270752 
	C182.959991,358.606995 183.416702,356.707886 184.151581,354.324707 
	C177.853027,351.423492 172.562057,352.519775 169.306015,357.210541 
	C166.346970,361.473358 167.439316,367.231567 171.819794,370.462128 
	C175.856995,373.439484 181.124420,373.182129 183.699158,369.279053 
M274.066162,306.947510 
	C272.002869,312.773254 272.707977,316.219788 276.903992,319.327728 
	C280.844696,322.246552 284.955963,322.551147 290.596924,318.917969 
	C288.017120,317.608704 286.315765,316.984955 284.899078,315.965607 
	C283.130951,314.693390 280.538269,313.308868 280.191986,311.591644 
	C279.552979,308.422852 282.088898,306.645386 285.179474,307.152435 
	C288.930298,307.767761 288.556183,305.286072 289.192902,303.275391 
	C282.752075,300.209900 279.494080,300.927521 274.066162,306.947510 
M298.616943,353.192963 
	C296.677551,353.192963 294.738129,353.192963 292.633179,353.192963 
	C292.633179,359.545349 292.633179,365.608643 292.633179,371.851501 
	C294.785461,371.851501 296.698669,371.851501 298.590637,371.851501 
	C300.312134,357.934692 300.312134,357.934692 306.621979,358.648865 
	C307.316345,357.077789 308.029236,355.464783 309.335938,352.508301 
	C305.212341,353.056763 302.095276,353.471313 298.616943,353.192963 
M365.474152,364.416992 
	C365.474152,360.692810 365.474152,356.968628 365.474152,353.212433 
	C362.972076,353.212433 361.199097,353.212433 359.286713,353.212433 
	C359.286713,359.561218 359.286713,365.747284 359.286713,371.869904 
	C361.405212,371.869904 363.212860,371.869904 365.474091,371.869904 
	C365.474091,369.611023 365.474091,367.488007 365.474152,364.416992 
M365.248169,347.682007 
	C364.969574,345.816284 365.061279,343.749542 364.215607,342.191681 
	C363.911285,341.631104 360.679871,341.724579 359.988129,342.540344 
	C359.075439,343.616760 358.663055,346.762817 359.245758,347.137604 
	C360.697144,348.071136 362.833374,347.939911 365.248169,347.682007 
z"/>
<path fill="#FDB7CC" opacity="1.000000" stroke="none" 
	d="
M189.168839,188.916214 
	C184.106537,183.317154 183.608078,179.100174 187.067215,172.812958 
	C187.907333,171.285965 188.990295,169.456223 188.821869,167.888123 
	C188.177307,161.887375 190.822021,157.710297 195.674515,154.148483 
	C196.004242,153.976913 196.082886,153.996552 196.164459,154.287079 
	C195.711594,155.673477 195.395508,156.970062 194.604736,157.830276 
	C191.266647,161.461578 191.510468,165.446823 192.635040,169.587372 
	C193.120605,169.786163 193.606171,169.984940 194.091736,170.183731 
	C195.668808,166.121185 197.245880,162.058640 199.224106,156.962723 
	C201.409195,160.760910 202.714828,163.030411 204.020462,165.299927 
	C204.560364,165.060638 205.100281,164.821350 205.640182,164.582077 
	C205.420181,161.047363 205.200180,157.512665 205.225220,153.718018 
	C206.647049,153.305176 207.823837,153.152283 208.946884,153.399658 
	C208.123199,156.571564 206.996750,159.391388 209.702759,162.592850 
	C211.399536,158.822571 212.706573,155.918335 214.419312,152.953125 
	C216.777496,152.590942 218.908875,151.634583 220.649231,152.109909 
	C226.126434,153.605865 230.133865,151.231934 233.991180,148.381592 
	C231.397781,159.599915 226.337143,165.143829 218.646408,165.507584 
	C218.144836,166.954514 217.636276,168.421646 216.728134,171.041412 
	C214.638733,168.742599 213.209625,167.073883 211.663116,165.522202 
	C211.136993,164.994308 210.315170,164.761124 209.628479,164.393280 
	C209.234924,165.194778 208.662933,165.961380 208.497406,166.807510 
	C208.328049,167.673386 208.556976,168.617172 208.606522,169.442902 
	C201.234589,171.565384 199.489914,173.606400 201.608368,178.653503 
	C206.991730,170.543884 213.748718,173.383194 220.858917,175.892181 
	C219.905548,177.348495 219.046066,178.661362 218.949326,178.809143 
	C219.558838,182.120926 219.955048,184.273651 220.351242,186.426376 
	C217.978897,185.424698 215.459030,184.658554 213.304596,183.309036 
	C212.403625,182.744675 212.278503,180.941696 211.800644,179.701874 
	C211.185013,180.160004 210.569382,180.618134 209.953766,181.076263 
	C209.357758,182.318817 208.761749,183.561386 207.853745,185.454407 
	C204.936066,183.617722 202.315964,181.968369 199.555618,180.230728 
	C198.047592,184.771072 200.453415,186.889755 203.723206,187.671921 
	C209.621735,189.082916 215.663239,189.889252 221.633575,191.009109 
	C227.188950,192.051117 233.890793,189.665955 237.243759,197.221924 
	C238.149109,199.262146 241.557556,201.430099 245.096191,198.896011 
	C244.616241,197.987305 244.410797,196.891754 243.867523,196.685318 
	C240.539474,195.420715 238.160416,193.541901 237.560547,189.719345 
	C237.465607,189.114410 235.460526,188.366287 234.382782,188.430145 
	C227.200333,188.855728 225.623978,187.736511 223.519089,180.023895 
	C224.205460,179.709625 224.899002,179.217484 225.657822,179.076370 
	C228.258453,178.592758 230.881973,178.232239 233.637787,178.135391 
	C237.446655,189.355133 244.850403,191.954605 255.007660,186.279999 
	C255.899826,191.718781 262.544922,195.649902 268.734131,194.772903 
	C275.829529,193.767502 278.717529,191.275208 279.378021,185.925385 
	C280.541504,186.995987 281.355835,188.029892 281.833862,189.139877 
	C278.335938,193.480087 275.174347,197.744202 271.713135,201.857925 
	C269.910919,201.070221 268.408295,200.432907 266.905670,199.795609 
	C266.945435,201.496292 266.985229,203.196991 266.640869,204.938858 
	C264.785217,206.000839 263.313721,207.021637 261.639893,207.873703 
	C260.567352,208.171295 259.697083,208.637619 258.524292,208.947052 
	C254.703278,204.043167 251.354202,207.240875 247.629654,208.973785 
	C246.139023,207.973770 244.993378,207.008591 244.269104,206.027222 
	C248.140366,205.079636 252.826523,206.026199 253.951294,201.084412 
	C248.393280,201.084412 243.615509,201.012817 238.845306,201.170120 
	C238.210327,201.191055 237.613632,202.373474 236.650589,202.973969 
	C232.105194,200.029877 227.953308,197.061081 223.684311,194.271530 
	C222.399323,193.431870 220.788620,193.090652 219.327133,192.521088 
	C218.902374,194.013718 218.477615,195.506348 217.672272,196.992981 
	C215.465591,196.290665 213.652557,195.557053 211.808884,194.910904 
	C210.547073,194.468719 209.242584,194.148392 207.957169,193.773590 
	C207.957169,195.080658 207.957169,196.387741 207.957169,198.267242 
	C203.277924,197.844147 198.634659,197.424301 193.959106,196.687210 
	C193.612213,195.584549 193.297577,194.799149 193.218384,193.750946 
	C194.946442,192.834946 196.439056,192.181702 198.894165,191.107239 
	C193.598557,188.147980 191.851868,184.701859 193.427429,179.832993 
	C193.635559,179.189835 192.504593,178.113342 191.993805,177.237549 
	C191.252365,177.939163 189.971313,178.567413 189.864227,179.355225 
	C189.434723,182.515350 189.369049,185.724930 189.168839,188.916214 
z"/>
<path fill="#645C71" opacity="1.000000" stroke="none" 
	d="
M272.012756,202.008331 
	C275.174347,197.744202 278.335938,193.480087 282.108704,189.229889 
	C283.441589,189.502731 284.163269,189.761658 285.241425,190.051025 
	C295.391876,195.742126 305.185852,201.402817 314.823914,207.356857 
	C309.170593,215.326965 303.552551,222.921356 298.230804,230.718018 
	C295.857788,234.194580 294.080902,238.078049 292.033478,241.776840 
	C282.883789,236.809357 273.734131,231.841858 264.037140,226.523865 
	C261.816559,225.319504 260.143280,224.465652 258.470001,223.611801 
	C258.321960,223.240738 258.173920,222.869675 258.347290,222.002762 
	C259.913452,220.702255 261.061188,219.616791 262.421570,219.146667 
	C266.198578,217.841339 267.659821,214.674484 266.106140,210.766174 
	C266.892181,209.419434 267.495483,208.333313 268.356018,207.033264 
	C269.746399,205.215668 270.879578,203.612000 272.012756,202.008331 
z"/>
<path fill="#FDB7CC" opacity="1.000000" stroke="none" 
	d="
M294.994049,145.016891 
	C299.311859,147.484207 301.142181,151.513321 301.867188,156.876953 
	C300.164398,160.395966 298.584442,163.197311 296.682129,165.862289 
	C292.837494,164.740372 289.291840,162.870178 285.798065,162.962555 
	C279.486938,163.129349 277.176666,168.618286 274.954132,173.730286 
	C268.163055,166.456680 265.050171,167.830597 259.547821,173.416641 
	C258.750214,171.919968 258.032745,170.507294 257.255798,169.128128 
	C254.760361,164.698624 250.993973,162.392502 245.871445,162.499664 
	C239.847244,162.625671 235.887009,166.332230 232.948105,174.046890 
	C223.055313,173.945801 222.378067,173.575821 222.571350,168.616257 
	C226.798523,168.497299 229.215897,166.988693 231.051468,163.324112 
	C234.399155,156.640747 238.017471,155.066986 245.100891,157.135468 
	C246.215378,157.460907 247.402985,157.536072 249.204056,157.834030 
	C246.945023,150.804581 240.932678,154.249039 235.756805,151.577438 
	C239.023285,149.044846 241.427170,146.834915 244.165680,145.178146 
	C246.023392,144.054260 248.053192,143.573090 246.044708,140.622665 
	C247.737335,139.822708 249.348679,139.387146 251.312286,138.974640 
	C255.956177,140.927673 252.523163,141.246902 251.076630,142.180328 
	C250.358719,142.643585 249.944580,143.577606 249.393005,144.298645 
	C250.317062,144.789520 251.529373,145.929947 252.119354,145.668121 
	C256.685211,143.641876 259.536072,148.028488 262.947296,148.358185 
	C266.401947,148.692078 270.187653,145.589737 273.832977,144.003204 
	C273.973297,143.942123 274.205109,144.057358 274.321472,143.980362 
	C275.411652,143.259140 276.485901,142.513840 277.564789,141.775513 
	C276.502228,141.187759 275.315033,139.949310 274.398682,140.124847 
	C270.425690,140.885880 266.531738,142.059677 261.767822,143.302948 
	C260.195343,141.324265 258.058746,138.635742 255.998444,135.601395 
	C259.714325,133.171509 263.353882,131.087463 266.993439,129.003418 
	C270.208984,130.064072 273.440460,131.080200 276.628204,132.218689 
	C277.365479,132.482010 277.939362,133.566940 278.612122,133.590271 
	C285.251801,133.820541 288.816132,138.106537 291.658569,143.844330 
	C291.206482,146.433945 290.846436,148.469589 290.536102,150.224014 
	C287.216736,149.433197 284.080231,147.776794 281.250275,148.194946 
	C274.710815,149.161224 269.050476,153.808685 261.980560,153.246628 
	C261.514984,153.209595 260.933746,154.627914 260.406311,155.369293 
	C261.363281,155.708267 262.447052,156.522003 263.255768,156.305969 
	C267.259644,155.236343 269.991486,156.601318 272.103302,160.020950 
	C272.557434,160.756378 273.872650,160.960022 274.791229,161.408630 
	C274.911896,160.388229 275.474518,159.133057 275.078339,158.387177 
	C273.137512,154.733215 275.636444,153.168823 278.216034,152.609726 
	C280.645691,152.083099 283.647003,152.131393 285.874756,153.112320 
	C293.328033,156.394257 294.975128,155.549683 294.998383,147.514313 
	C295.000793,146.681854 294.995667,145.849365 294.994049,145.016891 
z"/>
<path fill="#645C71" opacity="1.000000" stroke="none" 
	d="
M179.591904,137.756714 
	C191.342331,130.860062 202.962936,123.723839 214.934845,117.235901 
	C217.913391,115.621742 222.014053,115.929970 225.621841,115.652863 
	C236.575714,114.811516 247.540405,114.110527 258.502930,113.385765 
	C258.919586,113.358223 259.357361,113.650597 260.922363,114.174606 
	C254.557251,117.928604 248.952850,121.233948 242.707306,124.778534 
	C239.229126,126.335815 236.276413,127.453468 233.578033,129.011597 
	C226.964325,132.830551 220.641968,136.827667 212.329361,136.237579 
	C207.907745,135.923706 203.352982,137.485840 198.858307,138.201172 
	C198.439392,138.205307 198.020477,138.209427 197.197937,137.966980 
	C196.533096,137.835876 196.271896,137.951355 196.010696,138.066833 
	C191.640976,138.410553 187.271240,138.754272 182.216446,138.772827 
	C180.884888,138.217361 180.238388,137.987030 179.591904,137.756714 
z"/>
<path fill="#EC90AB" opacity="1.000000" stroke="none" 
	d="
M265.923401,211.026825 
	C267.659821,214.674484 266.198578,217.841339 262.421570,219.146667 
	C261.061188,219.616791 259.913452,220.702255 258.395935,221.706345 
	C257.506744,220.840958 257.149139,219.237778 256.232635,218.797165 
	C249.409897,215.517044 242.476318,212.467438 235.142120,209.148468 
	C235.052414,210.924530 234.892609,212.354385 234.921677,213.780396 
	C235.230652,228.938065 233.984283,243.926956 230.211624,258.657196 
	C229.466263,261.567505 229.722977,264.069183 232.510895,266.115540 
	C233.896866,267.132874 234.582626,269.104248 236.437134,271.952576 
	C231.162949,271.952576 227.402863,272.242584 223.748550,271.749176 
	C222.832352,271.625488 221.385208,268.795135 221.661072,267.531647 
	C223.868958,257.419556 227.317108,247.498871 228.629852,237.293716 
	C229.865509,227.688034 228.964127,217.807465 228.977051,207.252274 
	C226.633438,204.306412 224.315704,202.156082 221.857056,199.719620 
	C220.495041,198.621979 219.273941,197.810486 218.052856,196.998978 
	C218.477615,195.506348 218.902374,194.013718 219.327133,192.521088 
	C220.788620,193.090652 222.399323,193.431870 223.684311,194.271530 
	C227.953308,197.061081 232.105194,200.029877 236.818344,203.281799 
	C239.505707,204.436920 241.676712,205.240173 243.847733,206.043411 
	C244.993378,207.008591 246.139023,207.973770 247.831421,209.256836 
	C250.982086,210.728531 253.586029,211.882294 256.199951,213.040497 
	C257.240417,211.481293 258.033630,210.292618 258.826843,209.103943 
	C259.697083,208.637619 260.567352,208.171295 261.724243,208.206848 
	C263.315094,209.481415 264.619232,210.254120 265.923401,211.026825 
z"/>
<path fill="#0B0C0C" opacity="1.000000" stroke="none" 
	d="
M140.343109,357.804993 
	C138.547394,357.530518 137.186081,357.337524 135.824783,357.144501 
	C135.590485,357.474243 135.356201,357.803986 135.121902,358.133728 
	C139.073364,361.386444 147.930008,362.315033 142.143784,370.291748 
	C139.706085,373.652252 132.569443,373.167511 127.797760,369.760437 
	C128.518433,368.559082 129.254486,367.332062 129.859802,366.322998 
	C132.261597,366.760590 134.391830,367.148682 136.522079,367.536804 
	C136.673538,366.968445 136.824982,366.400085 136.976440,365.831726 
	C135.580414,365.162689 133.846649,364.807678 132.865738,363.752655 
	C131.308136,362.077423 128.972961,359.665070 129.311325,358.058289 
	C129.730286,356.068726 132.384979,353.373596 134.352234,353.116882 
	C139.361343,352.463226 144.542358,352.792023 149.614227,353.213287 
	C150.740067,353.306824 151.834625,355.311218 152.701675,356.598633 
	C153.789276,358.213531 154.627548,359.996399 155.900925,362.298950 
	C158.969421,357.798279 159.367569,350.076904 167.769775,353.650452 
	C163.238037,362.352081 158.890869,371.306122 153.848663,379.850006 
	C152.883453,381.485474 149.180954,381.505493 145.469482,382.669800 
	C148.073578,377.043304 151.886368,372.675995 151.432159,368.810059 
	C150.860245,363.942047 146.801224,359.483704 143.906967,354.232025 
	C142.663544,355.684021 141.720535,356.785217 140.343109,357.804993 
z"/>
<path fill="#EA9DB5" opacity="1.000000" stroke="none" 
	d="
M266.607452,128.956436 
	C263.353882,131.087463 259.714325,133.171509 255.641785,135.620087 
	C253.792557,136.973587 252.376297,137.962585 250.960022,138.951599 
	C249.348679,139.387146 247.737335,139.822708 245.694214,140.665039 
	C241.508484,143.378326 237.754517,145.684830 234.000534,147.991333 
	C230.133865,151.231934 226.126434,153.605865 220.649231,152.109909 
	C218.908875,151.634583 216.777496,152.590942 214.001129,152.946442 
	C211.785004,153.000275 210.392807,152.999832 209.000610,152.999390 
	C207.823837,153.152283 206.647049,153.305176 204.779083,153.724609 
	C201.419556,153.992935 198.751221,153.994751 196.082886,153.996552 
	C196.082886,153.996552 196.004242,153.976913 195.963684,153.984009 
	C197.466888,151.100601 199.010666,148.210098 201.225952,145.339584 
	C203.836655,145.661972 205.784302,146.269440 207.713654,146.216095 
	C218.369766,145.921509 228.244034,142.589050 237.663300,137.878082 
	C244.861115,134.278168 244.929001,133.828613 243.125565,126.077614 
	C250.824203,127.021561 258.522827,127.965508 266.607452,128.956436 
z"/>
<path fill="#5876FF" opacity="1.000000" stroke="none" 
	d="
M372.013550,311.949463 
	C372.013550,315.077301 372.013550,317.713104 372.013550,320.442108 
	C367.194183,320.848053 362.723480,321.642639 358.284485,321.493713 
	C352.617645,321.303558 349.059479,315.746124 350.023346,309.500885 
	C350.864838,304.048187 355.818268,300.668365 361.350739,301.795837 
	C362.468842,302.023682 363.567413,302.347107 365.235657,302.767853 
	C365.235657,300.373322 365.235657,298.263336 365.235657,296.153320 
	C365.235657,294.030487 365.235657,291.907654 365.235657,289.464600 
	C367.653473,289.464600 369.538361,289.464600 372.013519,289.464600 
	C372.013519,296.915985 372.013519,304.186707 372.013550,311.949463 
M359.147949,315.464569 
	C361.932159,316.494904 364.424133,315.959503 364.985168,312.917694 
	C365.273254,311.355743 364.307800,308.913208 363.067566,307.932190 
	C362.140564,307.198975 358.568787,307.852722 358.426788,308.436584 
	C357.922852,310.508484 358.384521,312.815186 359.147949,315.464569 
z"/>
<path fill="#5876FF" opacity="1.000000" stroke="none" 
	d="
M247.013580,304.003113 
	C247.013580,309.797424 247.013580,315.092773 247.013580,320.397217 
	C242.322388,320.843597 238.029343,321.565063 233.733292,321.583282 
	C228.097183,321.607239 224.272934,316.256989 224.981354,309.958740 
	C225.604904,304.414886 230.465546,300.716797 235.900620,301.694061 
	C237.185089,301.924988 238.441940,302.309570 240.270416,302.761658 
	C240.270416,298.239563 240.270416,293.992096 240.270416,289.451233 
	C242.676651,289.451233 244.561890,289.451233 247.013565,289.451233 
	C247.013565,294.279877 247.013565,298.892029 247.013580,304.003113 
M240.272217,312.373016 
	C240.501083,309.427887 239.290924,307.205322 236.267029,307.291412 
	C234.853790,307.331604 232.589935,308.927734 232.331589,310.158691 
	C232.007095,311.704742 232.837021,314.288513 234.071716,315.196167 
	C236.438568,316.936127 238.791534,315.970795 240.272217,312.373016 
z"/>
<path fill="#46394C" opacity="1.000000" stroke="none" 
	d="
M243.004120,125.811867 
	C244.929001,133.828613 244.861115,134.278168 237.663300,137.878082 
	C228.244034,142.589050 218.369766,145.921509 207.713654,146.216095 
	C205.784302,146.269440 203.836655,145.661972 201.532104,145.172165 
	C200.516159,142.930267 199.865570,140.875793 199.036652,138.511261 
	C203.352982,137.485840 207.907745,135.923706 212.329361,136.237579 
	C220.641968,136.827667 226.964325,132.830551 233.578033,129.011597 
	C236.276413,127.453468 239.229126,126.335815 242.429520,124.993233 
	C242.822830,125.161163 242.852737,125.353638 243.004120,125.811867 
z"/>
<path fill="#09090A" opacity="1.000000" stroke="none" 
	d="
M112.103683,366.053467 
	C112.103683,368.170288 112.103683,369.812744 112.103683,371.735809 
	C109.795975,371.735809 107.731461,371.735809 105.397797,371.735809 
	C105.397797,361.927734 105.397797,352.160339 105.397797,342.052399 
	C110.219688,342.052399 115.185303,341.571564 120.007446,342.196930 
	C124.244774,342.746460 126.520508,346.092041 126.682022,350.392548 
	C126.855400,355.008759 124.923973,358.584869 120.322113,359.981445 
	C117.832993,360.736847 115.135735,360.806458 112.103691,361.247864 
	C112.103691,362.648254 112.103691,364.113678 112.103683,366.053467 
M115.194534,355.045441 
	C117.905563,354.748657 120.205238,353.192505 119.019836,350.609467 
	C118.137619,348.687134 115.260902,347.680115 112.717300,345.870422 
	C111.670158,353.657837 111.670158,353.657837 115.194534,355.045441 
z"/>
<path fill="#0D0E0E" opacity="1.000000" stroke="none" 
	d="
M343.064941,371.637268 
	C342.150940,371.837891 341.125885,372.225677 341.102509,372.666595 
	C340.954102,375.464111 341.027100,378.273376 341.027100,381.368347 
	C338.817657,381.368347 336.919647,381.368347 334.712036,381.368347 
	C334.712036,372.010437 334.712036,362.776978 334.712036,353.530579 
	C339.093994,353.223877 343.386871,352.705353 347.682709,352.679718 
	C352.687317,352.649841 356.409790,356.848724 356.580048,362.214783 
	C356.754608,367.715363 353.024689,372.163818 347.830322,372.434753 
	C346.373383,372.510773 344.888916,372.058807 343.064941,371.637268 
M346.133118,358.172974 
	C344.445160,359.184509 341.765045,359.897217 341.345276,361.290741 
	C340.916077,362.715515 342.268219,365.496643 343.665253,366.380341 
	C344.697052,367.033051 347.748932,366.143188 348.674194,364.971741 
	C350.637543,362.486115 349.723785,359.975922 346.133118,358.172974 
z"/>
<path fill="#5876FF" opacity="1.000000" stroke="none" 
	d="
M212.869370,312.881866 
	C216.036377,314.153381 219.174805,314.971802 222.740753,315.901703 
	C222.740753,317.082153 222.740753,318.792358 222.740753,320.721130 
	C217.131973,320.721130 211.734314,320.721130 206.075226,320.721130 
	C206.075226,310.675079 206.075226,300.922394 206.075226,290.775391 
	C211.604630,290.775391 216.996262,290.775391 222.731857,290.775391 
	C222.731857,292.598511 222.731857,294.342957 222.731857,296.595184 
	C219.686050,296.743286 216.611923,296.892761 213.137970,297.061707 
	C213.033554,298.837128 212.941071,300.409821 212.821518,302.442871 
	C216.208923,302.686829 219.256714,302.906372 222.552109,303.143707 
	C222.552109,305.020966 222.552109,306.609192 222.552109,307.657654 
	C220.081055,311.543060 213.334366,304.905548 212.869370,312.881866 
z"/>
<path fill="#101111" opacity="1.000000" stroke="none" 
	d="
M199.564026,359.817749 
	C195.307739,356.824738 193.116959,357.731323 192.885040,362.249451 
	C192.724976,365.368011 192.854309,368.501434 192.854309,371.822815 
	C190.464325,371.822815 188.538757,371.822815 186.362549,371.822815 
	C186.362549,361.425995 186.362549,351.164246 186.362549,340.540649 
	C188.313843,340.540649 190.219116,340.540649 192.582062,340.540649 
	C192.582062,344.835907 192.582062,349.263275 192.582062,354.153351 
	C194.473465,353.565277 195.798111,352.986938 197.181030,352.753174 
	C202.322159,351.884033 206.200546,354.756714 206.492722,359.849854 
	C206.719284,363.799500 206.537994,367.772552 206.537994,371.880615 
	C204.263596,371.880615 202.450867,371.880615 199.763626,371.880615 
	C199.763626,368.051056 199.763626,364.130707 199.564026,359.817749 
z"/>
<path fill="#101111" opacity="1.000000" stroke="none" 
	d="
M171.567291,309.541504 
	C171.575027,313.453094 171.575027,316.931641 171.575027,320.719666 
	C169.359573,320.719666 167.450165,320.719666 164.963364,320.719666 
	C164.963364,317.621674 165.299683,314.291901 164.817642,311.085175 
	C164.586044,309.544464 162.808701,308.236115 161.731369,306.822540 
	C160.439575,308.214935 158.341156,309.448456 158.028870,311.033783 
	C157.433151,314.058105 157.855972,317.283020 157.855972,320.724670 
	C155.626877,320.724670 153.705002,320.724670 151.445999,320.724670 
	C151.445999,310.471802 151.445999,300.088715 151.445999,289.441681 
	C153.485977,289.441681 155.390259,289.441681 157.775131,289.441681 
	C157.775131,294.004089 157.775131,298.409637 157.775131,302.944763 
	C166.482407,300.272522 170.247543,302.058350 171.567291,309.541504 
z"/>
<path fill="#101111" opacity="1.000000" stroke="none" 
	d="
M247.434357,370.496582 
	C247.403030,360.264343 247.403030,350.490601 247.403030,340.452698 
	C249.759140,340.452698 251.649048,340.452698 253.914261,340.452698 
	C253.914261,344.978882 253.914261,349.399963 253.914261,353.645874 
	C256.803528,353.361359 259.367859,352.717896 261.846497,352.958160 
	C265.393921,353.302032 267.574463,355.687256 267.775452,359.266266 
	C268.005951,363.370514 267.828918,367.497650 267.828918,371.817322 
	C265.510864,371.817322 263.588654,371.817322 261.131927,371.817322 
	C261.131927,368.612274 261.502838,365.437805 260.985046,362.415588 
	C260.699921,360.751282 258.920746,359.342987 257.815155,357.819244 
	C256.553192,359.423401 254.580566,360.873749 254.192444,362.667053 
	C253.579361,365.499786 254.029251,368.562592 254.029251,372.417877 
	C251.563599,371.868378 249.514633,371.411713 247.434357,370.496582 
z"/>
<path fill="#0B0C0C" opacity="1.000000" stroke="none" 
	d="
M330.500122,353.671448 
	C330.735565,359.852448 330.735565,365.648560 330.735565,371.449280 
	C326.160492,371.811218 321.819427,372.415588 317.476288,372.431000 
	C312.253845,372.449554 308.591858,368.011932 308.680023,362.357544 
	C308.767853,356.724915 312.570618,352.583344 317.864746,352.648010 
	C322.000031,352.698456 326.131500,353.062073 330.500122,353.671448 
M315.924957,360.929443 
	C316.582367,362.780487 316.843353,364.989960 318.059906,366.335358 
	C318.693665,367.036255 321.415497,366.736145 322.455780,365.932465 
	C323.493469,365.130768 324.165405,363.077484 324.020874,361.673462 
	C323.627747,357.854553 320.154877,357.257599 315.924957,360.929443 
z"/>
<path fill="#EC90AB" opacity="1.000000" stroke="none" 
	d="
M258.374756,224.102264 
	C260.143280,224.465652 261.816559,225.319504 263.687866,226.397690 
	C263.314819,238.868561 262.743683,251.115097 262.159149,263.649902 
	C265.313599,265.140045 270.354614,265.456879 271.240356,271.972412 
	C265.637939,271.972412 260.533722,272.172974 255.476471,271.775574 
	C254.630539,271.709106 252.959229,268.436829 253.409286,267.678375 
	C258.727112,258.716400 257.790558,248.786331 258.211700,239.083710 
	C258.421051,234.261490 258.268372,229.423538 258.374756,224.102264 
z"/>
<path fill="#09090A" opacity="1.000000" stroke="none" 
	d="
M132.220184,296.766083 
	C126.309029,297.355225 128.301575,293.605225 128.165878,290.803406 
	C135.149658,290.803406 141.924561,290.803406 149.157379,290.803406 
	C149.242493,292.593445 149.324936,294.327393 149.423828,296.407288 
	C146.905807,296.652527 144.680191,296.869263 142.205688,297.110260 
	C142.205688,305.072662 142.205688,312.842468 142.205688,320.813293 
	C139.834915,320.813293 137.741058,320.813293 135.171143,320.813293 
	C135.171143,313.892609 135.292664,307.113281 135.059219,300.346191 
	C135.017181,299.127319 133.514084,297.958832 132.220184,296.766083 
z"/>
<path fill="#5876FF" opacity="1.000000" stroke="none" 
	d="
M311.681183,320.407166 
	C307.413269,321.069946 303.429626,321.534973 299.435944,321.648712 
	C294.215485,321.797333 289.973633,317.027710 290.054291,311.393372 
	C290.134033,305.820801 294.586914,301.192474 299.787964,301.479401 
	C303.654480,301.692657 307.506775,302.164490 311.960968,302.576202 
	C311.960968,308.203033 311.960968,314.128113 311.681183,320.407166 
M303.659180,315.368103 
	C304.349731,313.805511 305.994232,311.780182 305.512177,310.786285 
	C304.746460,309.207581 302.154053,307.071716 301.070679,307.425629 
	C299.410736,307.967896 297.331085,310.405823 297.299286,312.074768 
	C297.237335,315.326569 299.831024,316.409058 303.659180,315.368103 
z"/>
<path fill="#E5E6EA" opacity="1.000000" stroke="none" 
	d="
M314.979858,207.063507 
	C305.185852,201.402817 295.391876,195.742126 285.386597,189.691559 
	C287.442017,188.970520 289.708771,188.639359 292.233215,188.521210 
	C294.641937,189.460815 296.792908,190.187424 298.943878,190.914032 
	C300.240509,191.916977 301.591309,192.857910 302.823608,193.934494 
	C306.514893,197.159348 309.168823,197.309357 311.970673,192.424408 
	C314.287018,188.385895 318.676147,187.613647 323.457092,189.339539 
	C322.798309,195.489929 321.886810,201.274094 320.975342,207.058273 
	C320.975342,207.058273 320.965637,206.976776 320.581055,207.069183 
	C318.457611,207.128891 316.718719,207.096207 314.979858,207.063507 
z"/>
<path fill="#0B0C0C" opacity="1.000000" stroke="none" 
	d="
M173.773102,314.153992 
	C171.832108,307.922485 177.196091,301.694580 183.384064,301.583191 
	C189.931793,301.465271 193.603195,305.096954 193.587723,312.448242 
	C191.482651,312.448242 189.371002,312.448273 187.259354,312.448273 
	C185.124283,312.448273 182.989212,312.448242 180.062653,312.448242 
	C181.504105,316.523834 183.963181,316.373535 186.805679,315.849884 
	C188.784882,315.485260 190.837250,315.517853 193.769714,315.307526 
	C191.208755,320.729645 187.533478,321.525970 183.711655,321.481750 
	C178.985840,321.427063 175.521255,319.147705 173.773102,314.153992 
z"/>
<path fill="#09090A" opacity="1.000000" stroke="none" 
	d="
M209.767792,367.162292 
	C207.815079,362.149933 208.379791,357.951477 212.618378,354.889343 
	C216.744156,351.908661 221.316727,351.801849 225.800201,353.990845 
	C229.779297,355.933685 231.565323,359.298187 231.103622,363.774292 
	C230.317520,371.395355 220.078735,375.338776 213.042969,370.646088 
	C211.841080,369.844452 210.967545,368.550537 209.767792,367.162292 
M218.061386,358.595398 
	C215.098709,360.542664 214.534424,363.354950 217.021942,365.549011 
	C218.169373,366.561096 221.182114,366.089355 223.011978,365.398071 
	C223.785583,365.105835 224.459091,361.889984 223.821472,361.105164 
	C222.688477,359.710602 220.521637,359.155945 218.061386,358.595398 
z"/>
<path fill="#09090A" opacity="1.000000" stroke="none" 
	d="
M279.825562,367.138977 
	C283.180603,366.907379 286.123932,366.621948 290.198792,366.226776 
	C286.147186,372.210571 280.304199,373.829742 275.414764,371.494812 
	C270.813080,369.297363 268.554962,364.117371 270.129303,359.370392 
	C271.745026,354.498627 277.060608,351.750977 282.679413,352.883148 
	C287.649384,353.884613 290.014954,357.321259 289.662964,363.541443 
	C285.451385,363.541443 281.203552,363.541443 276.955688,363.541443 
	C276.782196,363.915802 276.608704,364.290192 276.435242,364.664551 
	C277.428101,365.471405 278.420990,366.278259 279.825562,367.138977 
z"/>
<path fill="#5876FF" opacity="1.000000" stroke="none" 
	d="
M341.088287,312.667999 
	C339.159119,312.749939 337.688904,312.832184 335.739044,312.941223 
	C338.396240,320.182343 345.175415,311.015747 347.688507,316.636414 
	C345.329834,321.116852 340.421722,322.864655 335.245056,320.981079 
	C330.246979,319.162506 327.372986,314.308044 328.509155,309.603516 
	C329.734314,304.530579 334.469727,301.062866 339.633240,301.457428 
	C345.415039,301.899231 348.429718,305.314728 348.748627,312.668274 
	C346.349396,312.668274 343.948303,312.668274 341.088287,312.667999 
z"/>
<path fill="#5B79FF" opacity="1.000000" stroke="none" 
	d="
M270.957764,308.975525 
	C270.906830,318.855560 268.518402,321.693573 260.618927,321.727692 
	C253.411057,321.758820 250.286728,318.705750 250.165329,311.448181 
	C250.115875,308.491516 250.157181,305.533325 250.157181,302.305969 
	C252.602493,302.305969 254.497101,302.305969 256.996735,302.305969 
	C256.996735,305.640015 256.572968,308.843048 257.169922,311.842987 
	C257.483124,313.417023 259.584717,314.635193 260.878723,316.014069 
	C261.950836,314.611267 263.686920,313.322571 263.951904,311.781006 
	C264.448944,308.888947 264.094971,305.850616 264.094971,302.283020 
	C266.320526,302.184448 268.214722,302.100555 270.957703,301.979065 
	C270.957703,304.351990 270.957703,306.430237 270.957764,308.975525 
z"/>
<path fill="#50465B" opacity="1.000000" stroke="none" 
	d="
M314.823914,207.356857 
	C316.718719,207.096207 318.457611,207.128891 320.620911,207.059311 
	C318.395447,211.108521 315.851929,215.332840 313.071472,219.394943 
	C308.580658,225.955765 303.813690,232.329926 299.413605,238.949249 
	C297.708099,241.514908 295.793488,242.648392 292.427490,241.885101 
	C294.080902,238.078049 295.857788,234.194580 298.230804,230.718018 
	C303.552551,222.921356 309.170593,215.326965 314.823914,207.356857 
z"/>
<path fill="#0B0C0C" opacity="1.000000" stroke="none" 
	d="
M369.753052,360.260681 
	C369.939941,352.899628 375.420898,350.600464 383.867523,354.299347 
	C383.292389,355.421875 382.725861,356.527618 382.106781,357.735962 
	C380.096466,357.554504 378.126465,357.376709 376.156464,357.198883 
	C375.861908,357.609894 375.567383,358.020935 375.272827,358.431946 
	C379.982971,360.939789 387.290344,362.078064 383.191925,369.648010 
	C381.179138,373.365723 374.095306,373.428192 368.320312,370.046448 
	C369.021942,368.719055 369.733826,367.372253 370.314636,366.273407 
	C372.750275,366.754181 374.779236,367.154694 376.808228,367.555176 
	C376.935089,367.190735 377.061981,366.826294 377.188873,366.461884 
	C374.745544,364.510620 372.302185,362.559357 369.753052,360.260681 
z"/>
<path fill="#050505" opacity="1.000000" stroke="none" 
	d="
M394.242950,347.599274 
	C394.267517,349.522461 394.267517,351.006470 394.267517,352.490479 
	C394.575104,352.275055 394.882721,352.059662 395.190308,351.844238 
	C396.464569,353.373810 397.738800,354.903381 399.548462,357.075623 
	C396.977325,357.823425 395.669739,358.203766 394.258240,358.614288 
	C394.723755,361.872925 392.609650,365.777924 397.620483,367.297485 
	C398.375854,367.526550 398.485565,369.884735 398.889008,371.241425 
	C391.076263,373.895264 388.085266,371.749115 387.806946,363.957123 
	C387.726837,361.714783 389.429688,358.585236 385.456604,357.469757 
	C385.049408,357.355469 384.820282,354.872894 385.266754,353.806824 
	C386.247314,351.465271 387.713715,349.327240 389.576355,346.064636 
	C390.227814,346.218353 392.223083,346.689240 394.242950,347.599274 
z"/>
<path fill="#5B79FF" opacity="1.000000" stroke="none" 
	d="
M317.058350,315.471771 
	C316.596100,311.880951 318.360046,308.123596 314.386230,305.876678 
	C313.969727,305.641174 314.040131,303.866058 314.411560,303.043121 
	C315.508453,300.612946 316.869812,298.302185 318.481384,295.281799 
	C319.357239,295.281799 321.257172,295.281799 323.157257,295.281799 
	C324.802277,297.630096 321.975037,302.358398 327.181641,302.504883 
	C326.623413,304.421722 326.065216,306.338562 325.506989,308.255402 
	C324.620544,308.354340 323.734070,308.453247 322.847626,308.552185 
	C324.560516,312.341949 326.273376,316.131744 327.974152,319.894684 
	C322.332825,323.160400 319.316467,322.021332 317.058350,315.471771 
z"/>
<path fill="#050505" opacity="1.000000" stroke="none" 
	d="
M234.626694,365.304871 
	C234.066360,362.289368 236.156754,358.871979 232.094589,357.287415 
	C231.701050,357.133911 231.800629,354.713013 232.260803,353.585144 
	C233.186920,351.315277 234.519608,349.211273 236.070251,346.319580 
	C236.768204,346.319580 238.653442,346.319580 240.892624,346.319580 
	C240.977524,348.229919 241.064011,350.175812 241.093307,350.834991 
	C242.839737,353.203125 244.193390,354.598846 244.868759,356.268890 
	C245.034134,356.677795 242.980255,357.984192 241.285690,359.449585 
	C241.631149,361.598328 239.041901,365.558746 244.336502,367.338501 
	C245.111084,367.598846 245.189255,369.930969 245.584381,371.286346 
	C238.312332,373.641510 235.863770,372.324341 234.626694,365.304871 
z"/>
<path fill="#FAA9C1" opacity="1.000000" stroke="none" 
	d="
M217.672272,196.992981 
	C219.273941,197.810486 220.495041,198.621979 221.573334,199.997650 
	C214.647354,201.066452 207.864197,201.571075 201.081024,202.075684 
	C201.015137,202.436676 200.949265,202.797684 200.883377,203.158676 
	C204.626816,204.475174 208.370239,205.791687 212.113678,207.108185 
	C211.333313,208.099609 210.748657,209.414520 209.738281,210.025696 
	C205.651108,212.498062 195.976379,209.884781 193.451736,205.341797 
	C195.068665,204.470566 196.345551,203.955399 197.622437,203.440216 
	C196.844055,202.461029 195.932388,201.557114 195.324951,200.481400 
	C194.721237,199.412323 194.423370,198.170517 193.991379,197.004456 
	C198.634659,197.424301 203.277924,197.844147 207.957169,198.267242 
	C207.957169,196.387741 207.957169,195.080658 207.957169,193.773590 
	C209.242584,194.148392 210.547073,194.468719 211.808884,194.910904 
	C213.652557,195.557053 215.465591,196.290665 217.672272,196.992981 
z"/>
<path fill="#09090A" opacity="1.000000" stroke="none" 
	d="
M183.822311,369.574371 
	C181.124420,373.182129 175.856995,373.439484 171.819794,370.462128 
	C167.439316,367.231567 166.346970,361.473358 169.306015,357.210541 
	C172.562057,352.519775 177.853027,351.423492 184.151581,354.324707 
	C183.416702,356.707886 182.959991,358.606995 179.334793,358.270752 
	C177.924332,358.139954 176.227509,361.096802 174.661133,362.647217 
	C176.298737,364.116730 177.854126,365.694702 179.601898,367.018799 
	C180.832260,367.950928 182.324081,368.537933 183.822311,369.574371 
z"/>
<path fill="#5876FF" opacity="1.000000" stroke="none" 
	d="
M274.267456,306.614136 
	C279.494080,300.927521 282.752075,300.209900 289.192902,303.275391 
	C288.556183,305.286072 288.930298,307.767761 285.179474,307.152435 
	C282.088898,306.645386 279.552979,308.422852 280.191986,311.591644 
	C280.538269,313.308868 283.130951,314.693390 284.899078,315.965607 
	C286.315765,316.984955 288.017120,317.608704 290.596924,318.917969 
	C284.955963,322.551147 280.844696,322.246552 276.903992,319.327728 
	C272.707977,316.219788 272.002869,312.773254 274.267456,306.614136 
z"/>
<path fill="#101111" opacity="1.000000" stroke="none" 
	d="
M298.797577,353.539429 
	C302.095276,353.471313 305.212341,353.056763 309.335938,352.508301 
	C308.029236,355.464783 307.316345,357.077789 306.621979,358.648865 
	C300.312134,357.934692 300.312134,357.934692 298.590637,371.851501 
	C296.698669,371.851501 294.785461,371.851501 292.633179,371.851501 
	C292.633179,365.608643 292.633179,359.545349 292.633179,353.192963 
	C294.738129,353.192963 296.677551,353.192963 298.797577,353.539429 
z"/>
<path fill="#FAA9C1" opacity="1.000000" stroke="none" 
	d="
M294.797058,144.762131 
	C294.995667,145.849365 295.000793,146.681854 294.998383,147.514313 
	C294.975128,155.549683 293.328033,156.394257 285.874756,153.112320 
	C283.647003,152.131393 280.645691,152.083099 278.216034,152.609726 
	C275.636444,153.168823 273.137512,154.733215 275.078339,158.387177 
	C275.474518,159.133057 274.911896,160.388229 274.791229,161.408630 
	C273.872650,160.960022 272.557434,160.756378 272.103302,160.020950 
	C269.991486,156.601318 267.259644,155.236343 263.255768,156.305969 
	C262.447052,156.522003 261.363281,155.708267 260.406311,155.369293 
	C260.933746,154.627914 261.514984,153.209595 261.980560,153.246628 
	C269.050476,153.808685 274.710815,149.161224 281.250275,148.194946 
	C284.080231,147.776794 287.216736,149.433197 290.536102,150.224014 
	C290.846436,148.469589 291.206482,146.433945 291.858826,144.119125 
	C292.967407,144.062424 293.783722,144.284897 294.797058,144.762131 
z"/>
<path fill="#F7B3C8" opacity="1.000000" stroke="none" 
	d="
M297.004517,165.998672 
	C298.584442,163.197311 300.164398,160.395966 301.897491,157.252350 
	C302.659302,157.149048 303.384583,157.250061 303.857147,157.649841 
	C306.436096,159.831619 309.018372,172.317108 307.121399,175.141632 
	C305.005798,178.291687 302.304688,181.048508 299.371552,183.940247 
	C298.884705,183.904022 298.600708,183.659958 298.724854,183.310684 
	C302.356567,176.858902 301.040405,171.280914 297.004517,165.998672 
z"/>
<path fill="#050505" opacity="1.000000" stroke="none" 
	d="
M365.474121,364.890991 
	C365.474091,367.488007 365.474091,369.611023 365.474091,371.869904 
	C363.212860,371.869904 361.405212,371.869904 359.286713,371.869904 
	C359.286713,365.747284 359.286713,359.561218 359.286713,353.212433 
	C361.199097,353.212433 362.972076,353.212433 365.474152,353.212433 
	C365.474152,356.968628 365.474152,360.692810 365.474121,364.890991 
z"/>
<path fill="#FDB7CC" opacity="1.000000" stroke="none" 
	d="
M212.449432,206.923859 
	C208.370239,205.791687 204.626816,204.475174 200.883377,203.158676 
	C200.949265,202.797684 201.015137,202.436676 201.081024,202.075684 
	C207.864197,201.571075 214.647354,201.066452 221.714264,200.283813 
	C224.315704,202.156082 226.633438,204.306412 228.882996,206.844391 
	C223.512482,205.738083 218.214844,204.090836 212.449432,206.923859 
z"/>
<path fill="#50465B" opacity="1.000000" stroke="none" 
	d="
M179.292175,137.907928 
	C180.238388,137.987030 180.884888,138.217361 181.756851,138.706573 
	C178.285263,141.808319 179.915024,145.160141 181.045044,148.488358 
	C181.811005,150.744263 183.017838,153.030930 183.003342,155.297287 
	C182.995789,156.479340 180.782532,158.549622 179.549103,158.561844 
	C178.370422,158.573532 176.742081,156.624344 176.113022,155.186417 
	C175.593475,153.998779 175.673798,151.744156 176.474197,150.921066 
	C180.206772,147.082718 178.652359,142.423813 179.292175,137.907928 
z"/>
<path fill="#FAA9C1" opacity="1.000000" stroke="none" 
	d="
M189.159790,189.272385 
	C189.369049,185.724930 189.434723,182.515350 189.864227,179.355225 
	C189.971313,178.567413 191.252365,177.939163 191.993805,177.237549 
	C192.504593,178.113342 193.635559,179.189835 193.427429,179.832993 
	C191.851868,184.701859 193.598557,188.147980 198.894165,191.107239 
	C196.439056,192.181702 194.946442,192.834946 192.965637,193.531372 
	C191.391479,192.732315 190.305511,191.890060 189.219543,191.047821 
	C189.196609,190.574738 189.173676,190.101639 189.159790,189.272385 
z"/>
<path fill="#EA9DB5" opacity="1.000000" stroke="none" 
	d="
M189.032135,191.389465 
	C190.305511,191.890060 191.391479,192.732315 192.730194,193.794159 
	C193.297577,194.799149 193.612213,195.584549 193.959106,196.687210 
	C194.423370,198.170517 194.721237,199.412323 195.324951,200.481400 
	C195.932388,201.557114 196.844055,202.461029 197.622437,203.440216 
	C196.345551,203.955399 195.068665,204.470566 193.400177,204.984863 
	C189.044525,201.375717 187.050659,197.148468 189.032135,191.389465 
z"/>
<path fill="#0B0C0C" opacity="1.000000" stroke="none" 
	d="
M364.971436,347.959076 
	C362.833374,347.939911 360.697144,348.071136 359.245758,347.137604 
	C358.663055,346.762817 359.075439,343.616760 359.988129,342.540344 
	C360.679871,341.724579 363.911285,341.631104 364.215607,342.191681 
	C365.061279,343.749542 364.969574,345.816284 364.971436,347.959076 
z"/>
<path fill="#645C71" opacity="1.000000" stroke="none" 
	d="
M321.300446,206.859131 
	C321.886810,201.274094 322.798309,195.489929 323.840210,189.347473 
	C324.228943,190.413788 324.914581,191.917679 324.667603,193.248505 
	C323.831787,197.752075 322.665527,202.194305 321.300446,206.859131 
z"/>
<path fill="#F7B3C8" opacity="1.000000" stroke="none" 
	d="
M299.084259,190.590424 
	C296.792908,190.187424 294.641937,189.460815 292.562805,188.395081 
	C294.623322,186.590622 296.612000,185.125290 298.600708,183.659958 
	C298.600708,183.659958 298.884705,183.904022 299.028015,184.026672 
	C299.189087,186.188477 299.206848,188.227646 299.084259,190.590424 
z"/>
<path fill="#46394C" opacity="1.000000" stroke="none" 
	d="
M196.262421,138.106598 
	C196.271896,137.951355 196.533096,137.835876 196.900085,137.866425 
	C196.841965,138.057083 196.678055,138.101715 196.262421,138.106598 
z"/>
<path fill="#FAA9C1" opacity="1.000000" stroke="none" 
	d="
M233.991180,148.381592 
	C237.754517,145.684830 241.508484,143.378326 245.612946,141.029434 
	C248.053192,143.573090 246.023392,144.054260 244.165680,145.178146 
	C241.427170,146.834915 239.023285,149.044846 235.756805,151.577438 
	C240.932678,154.249039 246.945023,150.804581 249.204056,157.834030 
	C247.402985,157.536072 246.215378,157.460907 245.100891,157.135468 
	C238.017471,155.066986 234.399155,156.640747 231.051468,163.324112 
	C229.215897,166.988693 226.798523,168.497299 222.571350,168.616257 
	C222.378067,173.575821 223.055313,173.945801 232.962463,174.423096 
	C233.460587,175.818665 233.478683,176.821732 233.496765,177.824799 
	C230.881973,178.232239 228.258453,178.592758 225.657822,179.076370 
	C224.899002,179.217484 224.205460,179.709625 223.519089,180.023895 
	C225.623978,187.736511 227.200333,188.855728 234.382782,188.430145 
	C235.460526,188.366287 237.465607,189.114410 237.560547,189.719345 
	C238.160416,193.541901 240.539474,195.420715 243.867523,196.685318 
	C244.410797,196.891754 244.616241,197.987305 245.096191,198.896011 
	C241.557556,201.430099 238.149109,199.262146 237.243759,197.221924 
	C233.890793,189.665955 227.188950,192.051117 221.633575,191.009109 
	C215.663239,189.889252 209.621735,189.082916 203.723206,187.671921 
	C200.453415,186.889755 198.047592,184.771072 199.555618,180.230728 
	C202.315964,181.968369 204.936066,183.617722 207.853745,185.454407 
	C208.761749,183.561386 209.357758,182.318817 209.953766,181.076263 
	C210.569382,180.618134 211.185013,180.160004 211.800644,179.701874 
	C212.278503,180.941696 212.403625,182.744675 213.304596,183.309036 
	C215.459030,184.658554 217.978897,185.424698 220.351242,186.426376 
	C219.955048,184.273651 219.558838,182.120926 218.949326,178.809143 
	C219.046066,178.661362 219.905548,177.348495 220.858917,175.892181 
	C213.748718,173.383194 206.991730,170.543884 201.608368,178.653503 
	C199.489914,173.606400 201.234589,171.565384 208.606522,169.442902 
	C208.556976,168.617172 208.328049,167.673386 208.497406,166.807510 
	C208.662933,165.961380 209.234924,165.194778 209.628479,164.393280 
	C210.315170,164.761124 211.136993,164.994308 211.663116,165.522202 
	C213.209625,167.073883 214.638733,168.742599 216.728134,171.041412 
	C217.636276,168.421646 218.144836,166.954514 218.646408,165.507584 
	C226.337143,165.143829 231.397781,159.599915 233.991180,148.381592 
z"/>
<path fill="#564357" opacity="1.000000" stroke="none" 
	d="
M233.637787,178.135391 
	C233.478683,176.821732 233.460587,175.818665 233.428131,174.439392 
	C235.887009,166.332230 239.847244,162.625671 245.871445,162.499664 
	C250.993973,162.392502 254.760361,164.698624 257.255798,169.128128 
	C258.032745,170.507294 258.750214,171.919968 259.547821,173.416641 
	C265.050171,167.830597 268.163055,166.456680 274.954132,173.730286 
	C277.176666,168.618286 279.486938,163.129349 285.798065,162.962555 
	C289.291840,162.870178 292.837494,164.740372 296.682129,165.862289 
	C301.040405,171.280914 302.356567,176.858902 298.724854,183.310684 
	C296.612000,185.125290 294.623322,186.590622 292.305054,188.182083 
	C289.708771,188.639359 287.442017,188.970520 285.030151,189.661133 
	C284.163269,189.761658 283.441589,189.502731 282.445038,189.153809 
	C281.355835,188.029892 280.541504,186.995987 279.360840,185.955032 
	C278.994568,185.947968 279.061523,185.961670 279.024536,185.610138 
	C277.725067,182.716110 276.462524,180.173630 275.178436,177.282471 
	C273.813507,175.862808 272.265411,174.967682 271.165497,173.687515 
	C267.986816,169.987808 265.430206,170.304504 262.502258,175.056091 
	C261.050537,176.350647 259.708649,177.357727 258.868713,178.682938 
	C257.391083,181.014282 256.220245,183.540100 254.957672,185.973160 
	C254.994354,185.961823 254.974228,185.887711 254.974228,185.887711 
	C244.850403,191.954605 237.446655,189.355133 233.637787,178.135391 
M254.953003,181.678345 
	C257.578094,176.972427 257.314667,172.488434 253.727493,168.401398 
	C250.962540,165.251144 247.337158,164.000305 243.402618,165.398544 
	C239.071823,166.937607 236.145813,169.963684 236.042130,175.776382 
	C236.128937,180.901703 238.319595,184.541611 243.381363,186.138474 
	C248.073181,187.618637 251.665283,186.018158 254.953003,181.678345 
M298.352631,176.225311 
	C297.741852,169.052551 294.234558,165.127472 288.303009,164.978622 
	C283.248383,164.851776 278.643646,168.821228 278.002655,173.857941 
	C277.147369,180.578461 280.102753,184.763992 287.519806,186.752243 
	C294.446869,185.844223 296.992371,183.507828 298.352631,176.225311 
z"/>
<path fill="#E26C8A" opacity="1.000000" stroke="none" 
	d="
M279.011719,185.918335 
	C278.717529,191.275208 275.829529,193.767502 268.734131,194.772903 
	C262.544922,195.649902 255.899826,191.718781 255.007660,186.279999 
	C254.974228,185.887711 254.994354,185.961823 255.339508,185.987854 
	C263.133698,191.105804 270.591766,191.474518 278.081543,186.086197 
	C278.316467,185.917191 278.730835,185.997559 279.061523,185.961670 
	C279.061523,185.961670 278.994568,185.947968 279.011719,185.918335 
z"/>
<path fill="#FAA9C1" opacity="1.000000" stroke="none" 
	d="
M196.164459,154.287079 
	C198.751221,153.994751 201.419556,153.992935 204.534027,153.984543 
	C205.200180,157.512665 205.420181,161.047363 205.640182,164.582077 
	C205.100281,164.821350 204.560364,165.060638 204.020462,165.299927 
	C202.714828,163.030411 201.409195,160.760910 199.224106,156.962723 
	C197.245880,162.058640 195.668808,166.121185 194.091736,170.183731 
	C193.606171,169.984940 193.120605,169.786163 192.635040,169.587372 
	C191.510468,165.446823 191.266647,161.461578 194.604736,157.830276 
	C195.395508,156.970062 195.711594,155.673477 196.164459,154.287079 
z"/>
<path fill="#FAA9C1" opacity="1.000000" stroke="none" 
	d="
M244.269104,206.027222 
	C241.676712,205.240173 239.505707,204.436920 237.166946,203.325836 
	C237.613632,202.373474 238.210327,201.191055 238.845306,201.170120 
	C243.615509,201.012817 248.393280,201.084412 253.951294,201.084412 
	C252.826523,206.026199 248.140366,205.079636 244.269104,206.027222 
z"/>
<path fill="#E5F7F8" opacity="1.000000" stroke="none" 
	d="
M258.524292,208.947052 
	C258.033630,210.292618 257.240417,211.481293 256.199951,213.040497 
	C253.586029,211.882294 250.982086,210.728531 248.176392,209.291687 
	C251.354202,207.240875 254.703278,204.043167 258.524292,208.947052 
z"/>
<path fill="#FAA9C1" opacity="1.000000" stroke="none" 
	d="
M208.946884,153.399658 
	C210.392807,152.999832 211.785004,153.000275 213.595398,153.007416 
	C212.706573,155.918335 211.399536,158.822571 209.702759,162.592850 
	C206.996750,159.391388 208.123199,156.571564 208.946884,153.399658 
z"/>
<path fill="#E5F7F8" opacity="1.000000" stroke="none" 
	d="
M266.106140,210.766174 
	C264.619232,210.254120 263.315094,209.481415 261.926575,208.375580 
	C263.313721,207.021637 264.785217,206.000839 266.884644,205.163986 
	C267.707947,205.981033 267.903381,206.614120 268.098816,207.247208 
	C267.495483,208.333313 266.892181,209.419434 266.106140,210.766174 
z"/>
<path fill="#FAA9C1" opacity="1.000000" stroke="none" 
	d="
M268.356018,207.033264 
	C267.903381,206.614120 267.707947,205.981033 267.268768,205.122803 
	C266.985229,203.196991 266.945435,201.496292 266.905670,199.795609 
	C268.408295,200.432907 269.910919,201.070221 271.713135,201.857941 
	C270.879578,203.612000 269.746399,205.215668 268.356018,207.033264 
z"/>
<path fill="#FAA9C1" opacity="1.000000" stroke="none" 
	d="
M251.312286,138.974640 
	C252.376297,137.962585 253.792557,136.973587 255.565475,135.965912 
	C258.058746,138.635742 260.195343,141.324265 261.767822,143.302948 
	C266.531738,142.059677 270.425690,140.885880 274.398682,140.124847 
	C275.315033,139.949310 276.502228,141.187759 277.564789,141.775513 
	C276.485901,142.513840 275.411652,143.259140 274.321472,143.980362 
	C274.205109,144.057358 273.973297,143.942123 273.832977,144.003204 
	C270.187653,145.589737 266.401947,148.692078 262.947296,148.358185 
	C259.536072,148.028488 256.685211,143.641876 252.119354,145.668121 
	C251.529373,145.929947 250.317062,144.789520 249.393005,144.298645 
	C249.944580,143.577606 250.358719,142.643585 251.076630,142.180328 
	C252.523163,141.246902 255.956177,140.927673 251.312286,138.974640 
z"/>
<path fill="#DDF0F8" opacity="1.000000" stroke="none" 
	d="
M358.814148,315.248779 
	C358.384521,312.815186 357.922852,310.508484 358.426788,308.436584 
	C358.568787,307.852722 362.140564,307.198975 363.067566,307.932190 
	C364.307800,308.913208 365.273254,311.355743 364.985168,312.917694 
	C364.424133,315.959503 361.932159,316.494904 358.814148,315.248779 
z"/>
<path fill="#DDF0F8" opacity="1.000000" stroke="none" 
	d="
M240.187836,312.771698 
	C238.791534,315.970795 236.438568,316.936127 234.071716,315.196167 
	C232.837021,314.288513 232.007095,311.704742 232.331589,310.158691 
	C232.589935,308.927734 234.853790,307.331604 236.267029,307.291412 
	C239.290924,307.205322 240.501083,309.427887 240.187836,312.771698 
z"/>
<path fill="#E5E6EA" opacity="1.000000" stroke="none" 
	d="
M114.755486,355.073242 
	C111.670158,353.657837 111.670158,353.657837 112.717300,345.870422 
	C115.260902,347.680115 118.137619,348.687134 119.019836,350.609467 
	C120.205238,353.192505 117.905563,354.748657 114.755486,355.073242 
z"/>
<path fill="#E5E6EA" opacity="1.000000" stroke="none" 
	d="
M346.496277,358.282410 
	C349.723785,359.975922 350.637543,362.486115 348.674194,364.971741 
	C347.748932,366.143188 344.697052,367.033051 343.665253,366.380341 
	C342.268219,365.496643 340.916077,362.715515 341.345276,361.290741 
	C341.765045,359.897217 344.445160,359.184509 346.496277,358.282410 
z"/>
<path fill="#DDF0F8" opacity="1.000000" stroke="none" 
	d="
M316.070465,360.547791 
	C320.154877,357.257599 323.627747,357.854553 324.020874,361.673462 
	C324.165405,363.077484 323.493469,365.130768 322.455780,365.932465 
	C321.415497,366.736145 318.693665,367.036255 318.059906,366.335358 
	C316.843353,364.989960 316.582367,362.780487 316.070465,360.547791 
z"/>
<path fill="#DDF0F8" opacity="1.000000" stroke="none" 
	d="
M303.317383,315.547455 
	C299.831024,316.409058 297.237335,315.326569 297.299286,312.074768 
	C297.331085,310.405823 299.410736,307.967896 301.070679,307.425629 
	C302.154053,307.071716 304.746460,309.207581 305.512177,310.786285 
	C305.994232,311.780182 304.349731,313.805511 303.317383,315.547455 
z"/>
<path fill="#DDF0F8" opacity="1.000000" stroke="none" 
	d="
M218.424332,358.422668 
	C220.521637,359.155945 222.688477,359.710602 223.821472,361.105164 
	C224.459091,361.889984 223.785583,365.105835 223.011978,365.398071 
	C221.182114,366.089355 218.169373,366.561096 217.021942,365.549011 
	C214.534424,363.354950 215.098709,360.542664 218.424332,358.422668 
z"/>
<path fill="#F7B3C8" opacity="1.000000" stroke="none" 
	d="
M286.907135,186.468811 
	C280.102753,184.763992 277.147369,180.578461 278.002655,173.857941 
	C278.643646,168.821228 283.248383,164.851776 288.303009,164.978622 
	C294.234558,165.127472 297.741852,169.052551 297.938599,176.427826 
	C296.415558,175.700226 295.306549,174.770111 294.234253,173.870773 
	C292.729279,177.060364 291.686127,179.627563 290.331299,182.018173 
	C289.417450,183.630661 288.063965,184.994019 286.907135,186.468811 
M285.694977,172.080414 
	C285.067902,173.982193 283.963867,175.892929 283.999359,177.782272 
	C284.019440,178.851196 285.776947,180.424606 287.010223,180.731018 
	C287.742645,180.913010 289.644226,179.203522 289.854614,178.118469 
	C290.382324,175.396713 290.679413,172.306152 285.694977,172.080414 
z"/>
<path fill="#F7B3C8" opacity="1.000000" stroke="none" 
	d="
M236.168472,174.994705 
	C236.145813,169.963684 239.071823,166.937607 243.402618,165.398544 
	C247.337158,164.000305 250.962540,165.251144 253.727493,168.401398 
	C257.314667,172.488434 257.578094,176.972427 254.234116,181.876770 
	C251.016144,181.703140 248.517044,181.331070 246.400879,180.962158 
	C252.176849,180.111084 250.753586,176.582870 250.066147,173.330124 
	C245.323730,171.710632 243.818039,173.812912 243.699646,177.857941 
	C240.975189,176.810822 238.571823,175.902756 236.168472,174.994705 
z"/>
<path fill="#FDB7CC" opacity="1.000000" stroke="none" 
	d="
M279.024536,185.610138 
	C278.730835,185.997559 278.316467,185.917191 278.081543,186.086197 
	C270.591766,191.474518 263.133698,191.105804 255.302826,185.999176 
	C256.220245,183.540100 257.391083,181.014282 258.868713,178.682938 
	C259.708649,177.357727 261.050537,176.350647 262.825439,175.218353 
	C264.377930,177.809113 265.288818,180.375885 266.158478,182.956573 
	C266.732391,184.659668 267.246979,186.382736 267.663666,187.702560 
	C270.526947,183.876099 272.863464,180.753616 275.200012,177.631134 
	C276.462524,180.173630 277.725067,182.716110 279.024536,185.610138 
z"/>
<path fill="#FAA9C1" opacity="1.000000" stroke="none" 
	d="
M246.017960,180.958984 
	C248.517044,181.331070 251.016144,181.703140 253.977692,182.117050 
	C251.665283,186.018158 248.073181,187.618637 243.381363,186.138474 
	C238.319595,184.541611 236.128937,180.901703 236.105301,175.385544 
	C238.571823,175.902756 240.975189,176.810822 243.898911,178.082489 
	C244.952179,179.283737 245.485077,180.121353 246.017960,180.958984 
z"/>
<path fill="#FAA9C1" opacity="1.000000" stroke="none" 
	d="
M275.178436,177.282471 
	C272.863464,180.753616 270.526947,183.876099 267.663666,187.702560 
	C267.246979,186.382736 266.732391,184.659668 266.158478,182.956573 
	C265.288818,180.375885 264.377930,177.809113 263.161377,175.074158 
	C265.430206,170.304504 267.986816,169.987808 271.165497,173.687515 
	C272.265411,174.967682 273.813507,175.862808 275.178436,177.282471 
z"/>
<path fill="#FAA9C1" opacity="1.000000" stroke="none" 
	d="
M287.213470,186.610535 
	C288.063965,184.994019 289.417450,183.630661 290.331299,182.018173 
	C291.686127,179.627563 292.729279,177.060364 294.234253,173.870773 
	C295.306549,174.770111 296.415558,175.700226 297.813965,176.834259 
	C296.992371,183.507828 294.446869,185.844223 287.213470,186.610535 
z"/>
<path fill="#46394C" opacity="1.000000" stroke="none" 
	d="
M286.104370,171.987244 
	C290.679413,172.306152 290.382324,175.396713 289.854614,178.118469 
	C289.644226,179.203522 287.742645,180.913010 287.010223,180.731018 
	C285.776947,180.424606 284.019440,178.851196 283.999359,177.782272 
	C283.963867,175.892929 285.067902,173.982193 286.104370,171.987244 
z"/>
<path fill="#46394C" opacity="1.000000" stroke="none" 
	d="
M246.400879,180.962158 
	C245.485077,180.121353 244.952179,179.283737 244.220001,178.221558 
	C243.818039,173.812912 245.323730,171.710632 250.066147,173.330124 
	C250.753586,176.582870 252.176849,180.111084 246.400879,180.962158 
z"/>
</svg>